<svg width="775" height="464" viewBox="0 0 775 464" fill="none" xmlns="http://www.w3.org/2000/svg">
<path d="M695.819 438.889C688.557 429.796 681.313 420.689 674.03 411.613C636.054 364.284 594.193 320.9 544.824 285.246C503.057 255.083 458.192 231.346 407.593 219.464C383.952 213.913 359.928 212.338 335.505 210.599C342.171 199.441 348.736 188.5 356.266 178.269C362.999 169.122 370.796 160.757 378.633 152.053C387.784 152.332 396.431 152.501 405.068 152.896C458.444 155.335 508.729 169.73 556.235 193.577C576.542 203.771 595.75 216.153 615.593 227.839C616.846 229.786 618.236 231.311 619.04 233.1C631.806 261.499 644.567 289.9 657.163 318.374C660.9 326.822 664.126 335.497 667.526 344.419C667.639 345.204 667.812 345.638 667.904 346.432C668.491 348.832 669.163 350.872 669.829 352.915C676.245 372.593 682.843 392.215 688.99 411.977C691.735 420.802 693.571 429.91 695.819 438.889Z" fill="#EC274B"/>
<path d="M7.07745 390.325C6.64209 391.224 6.36911 392.263 5.738 392.992C4.36963 394.573 2.81808 395.995 1.3414 397.482C0.883602 395.338 -0.343753 393.021 0.0921296 391.077C3.07193 377.789 5.5541 364.301 9.80096 351.406C17.6372 327.611 25.7985 303.863 35.2541 280.678C46.5768 252.916 60.2994 226.288 81.0041 204.012C92.2037 191.963 104.579 181.303 120.925 177.094C134.709 173.544 148.206 175.097 161.174 181.475C172.569 187.08 181.693 195.462 191.024 204.616C196.332 211.729 201.302 218.334 206.242 224.961C208.802 228.395 211.309 231.867 213.837 235.65C216.852 241.295 220.058 246.516 222.857 251.947C236.85 279.105 248.569 307.201 257.333 336.841C254.745 346.789 251.734 356.292 249.724 366.001C246.709 380.563 244.397 395.27 241.785 409.915C240.468 407.829 238.575 405.908 237.92 403.631C228.042 369.282 216.304 335.629 199.786 303.854C191.134 287.209 181.312 271.235 167.651 257.216C159.875 247.951 151.338 240.728 139.993 236.832C123.711 230.775 108.377 232.495 93.8016 241.19C76.7692 251.351 64.9129 266.581 54.1543 282.69C39.8621 304.089 29.8789 327.697 20.0716 351.355C18.4451 355.278 17.2498 359.381 15.7311 363.786C12.9689 372.516 10.3307 380.86 7.69259 389.204C7.69259 389.204 7.61132 389.167 7.43322 389.277C7.03009 389.668 6.97085 389.981 7.07745 390.325Z" fill="#FADD0A"/>
<path d="M321.581 157.747C319.056 165.215 316.181 172.589 313.167 179.905C308.563 191.079 303.863 202.214 298.537 213.593C294.084 214.266 290.274 214.565 286.515 215.182C261.567 219.274 237.185 225.432 213.841 235.322C211.309 231.867 208.802 228.395 206.242 224.961C201.302 218.334 196.333 211.729 191.322 204.777C212.251 194.768 232.9 184.268 254.308 175.657C275.765 167.026 298.208 161.138 321.581 157.747Z" fill="#EC274B"/>
<path d="M8.02344 389.148C10.3308 380.86 12.9689 372.516 15.9395 363.612C23.2389 354.249 30.0681 345.331 37.1996 336.662C56.1262 313.655 76.3164 291.813 98.7337 272.152C112.346 260.214 126.376 248.752 140.218 237.075C151.338 240.728 159.875 247.951 167.37 256.964C134.843 274.714 104.98 296.088 76.9002 320.058C53.6712 339.886 32.1405 361.385 12.4485 384.729C11.1642 386.251 9.72266 387.641 8.02344 389.148Z" fill="#EC2B4A"/>
<path d="M669.567 320.072C669.077 318.264 668.586 316.456 668.089 314.623C673.368 315.466 673.063 331.358 667.627 339.708C667.469 338.29 667.373 336.516 667.462 334.041C667.954 331.916 668.262 330.493 668.57 329.07C668.241 327.327 667.911 325.584 667.576 323.458C667.57 323.073 667.57 323.071 667.915 323.017C668.696 322 669.132 321.036 669.567 320.072Z" fill="#0968B9"/>
<path d="M486.493 6.07092C477.692 6.07092 469.381 6.07092 461.07 6.07092C461.082 5.5714 461.095 5.07185 461.107 4.57233C472.356 4.57233 483.604 4.57233 494.853 4.57233C494.876 5.07185 494.899 5.5714 494.922 6.07092C492.275 6.07092 489.629 6.07092 486.493 6.07092Z" fill="#0466B3"/>
<path d="M663.558 315.678C663.903 318.135 664.237 320.2 664.571 322.668C664.131 323.665 663.69 324.259 663.248 324.853C662.699 324.206 661.955 323.641 661.642 322.895C661.042 321.461 660.687 319.925 659.88 317.952C659.214 317.004 658.899 316.536 658.584 316.067C658.579 315.319 658.574 314.57 658.57 313.446C658.57 313.071 658.572 313.068 658.572 313.068C660.23 313.808 661.888 314.548 663.558 315.678Z" fill="#0968B9"/>
<path d="M346.934 116.459C348.393 115.641 349.699 115.175 351.006 114.708C350.747 116.021 350.844 117.583 350.14 118.582C349.259 119.832 347.72 120.619 345.906 122.045C346.266 119.893 346.523 118.353 346.934 116.459Z" fill="#0466B3"/>
<path d="M585.874 61.9914C590.274 57.9831 590.718 62.3214 592.808 64.7929C589.291 65.8602 586.797 66.1328 585.874 61.9914Z" fill="#0968B9"/>
<path d="M521.154 110.428C522.782 110.619 524.057 110.982 525.333 111.346C525.027 112.055 524.832 113.282 524.394 113.376C523.055 113.665 521.623 113.517 520.227 113.539C520.418 112.56 520.609 111.581 521.154 110.428Z" fill="#0466B3"/>
<path d="M668.251 328.932C668.262 330.493 667.955 331.916 667.607 333.705C665.946 332.105 664.325 330.14 662.703 328.175C662.869 327.874 663.035 327.573 663.201 327.272C664.778 327.78 666.355 328.287 668.251 328.932Z" fill="#0466B3"/>
<path d="M623.533 221.719C622.474 222.283 621.377 222.495 620.256 222.711C619.507 220.572 618.807 218.573 618.107 216.574C618.478 216.305 618.849 216.037 619.22 215.769C620.646 217.635 622.071 219.5 623.533 221.719Z" fill="#0466B3"/>
<path d="M477.014 96.0845C478.785 96.4303 480.18 96.7856 481.574 97.1409C481.482 97.5569 481.391 97.973 481.299 98.389C479.796 98.5137 478.285 98.7795 476.794 98.6948C476.185 98.6602 475.619 97.8667 475.034 97.4185C475.568 96.977 476.103 96.5355 477.014 96.0845Z" fill="#0466B3"/>
<path d="M453.762 11.1646C452.188 11.0129 450.867 10.5919 449.546 10.1709C449.771 9.64515 449.996 9.11936 450.221 8.59357C451.881 8.51742 454.623 6.13377 453.762 11.1646Z" fill="#0466B3"/>
<path d="M428.895 20.5093C429.488 21.4292 429.744 22.4451 429.999 23.461C428.649 23.3804 427.299 23.2997 425.949 23.2191C425.905 22.8147 425.861 22.4103 425.817 22.0059C426.731 21.539 427.644 21.0721 428.895 20.5093Z" fill="#0466B3"/>
<path d="M602.457 90.7935C601.376 89.914 600.653 88.9221 599.931 87.9301C600.648 87.6921 601.364 87.4541 602.08 87.2161C602.325 88.3711 602.571 89.5261 602.457 90.7935Z" fill="#0466B3"/>
<path d="M502.09 6.42346C503.64 5.91039 505.047 5.70444 506.455 5.49847C506.495 6.14554 506.535 6.79262 506.576 7.43968C505.033 7.20331 503.491 6.96693 502.09 6.42346Z" fill="#0466B3"/>
<path d="M611.838 105.18C612.95 104.653 613.968 104.468 614.987 104.284C614.96 104.985 614.933 105.686 614.906 106.387C613.852 106.099 612.799 105.81 611.838 105.18Z" fill="#0466B3"/>
<path d="M634.742 122.303C635.471 123.423 635.872 124.615 636.273 125.807C635.653 125.935 635.033 126.063 634.413 126.191C634.413 124.918 634.413 123.646 634.742 122.303Z" fill="#0968B9"/>
<path d="M621.201 99.1633C621.658 99.4172 621.844 99.6692 622.298 99.9949C622.017 101.055 621.534 101.993 621.051 102.93C620.576 102.719 620.101 102.508 619.626 102.296C620.038 101.267 620.45 100.239 621.201 99.1633Z" fill="#0968B9"/>
<path d="M611.2 99.0781C611.57 99.8199 611.57 100.57 611.571 101.695C610.654 101.691 609.737 101.311 608.819 100.931C609.49 100.316 610.16 99.7014 611.2 99.0781Z" fill="#0466B3"/>
<path d="M380.316 69.9118C379.453 70.2203 378.669 70.1907 377.884 70.161C378.034 69.5954 378.185 69.0297 378.335 68.464C379.021 68.8339 379.708 69.2039 380.316 69.9118Z" fill="#0466B3"/>
<path d="M644.32 142.069C645.328 142.95 646.084 143.833 646.84 144.716C646.458 145.017 646.076 145.317 645.694 145.617C645.007 144.659 644.32 143.7 643.599 142.408C643.733 142.072 643.901 142.071 644.32 142.069Z" fill="#0466B3"/>
<path d="M366.039 88.6997C365.602 87.8778 365.455 87.208 365.308 86.5381C366.24 86.9897 367.173 87.4412 368.106 87.8927C367.514 88.2124 366.921 88.5321 366.039 88.6997Z" fill="#0466B3"/>
<path d="M336.57 186.07C337.565 186.822 338.56 187.575 339.562 188.699C339.57 189.071 339.57 189.072 339.57 189.072C338.593 188.299 337.615 187.526 336.604 186.412C336.57 186.072 336.57 186.07 336.57 186.07Z" fill="#0466B3"/>
<path d="M630.766 251.335C631.556 251.136 632.297 251.261 633.039 251.387C632.964 251.806 632.889 252.225 632.815 252.644C632.115 252.316 631.416 251.988 630.766 251.335Z" fill="#0466B3"/>
<path d="M339.57 189.07C340.18 189.613 340.789 190.156 341.399 190.699C341.118 190.996 340.837 191.293 340.555 191.59C340.23 190.979 339.905 190.368 339.575 189.415C339.57 189.072 339.57 189.07 339.57 189.07Z" fill="#0466B3"/>
<path d="M653.366 290.879C652.805 291.124 652.305 291.071 651.805 291.017C651.919 290.568 652.033 290.12 652.147 289.671C652.574 289.974 653.001 290.277 653.366 290.879Z" fill="#0466B3"/>
<path d="M611.569 98.0713C611.36 96.7654 611.152 95.4592 611.255 94.1107C611.567 94.0685 611.57 94.0709 611.57 94.4717C611.57 95.938 611.57 97.0036 611.571 98.0691L611.569 98.0713Z" fill="#0968B9"/>
<path d="M443.175 21.1165C442.779 21.358 442.385 21.3563 441.994 21.326C441.982 21.3252 441.995 21.0199 441.997 20.8566C442.39 20.8608 442.784 20.865 443.175 21.1165Z" fill="#0466B3"/>
<path d="M658.569 313.072C658.058 312.77 657.549 312.467 657.041 312.164C657.222 311.955 657.404 311.746 657.585 311.536C657.89 311.858 658.195 312.179 658.536 312.785C658.572 313.068 658.569 313.072 658.569 313.072Z" fill="#0968B9"/>
<path d="M636.179 258.606C636.628 258.722 636.904 259.005 637.158 259.306C637.164 259.314 636.937 259.519 636.819 259.632C636.547 259.346 636.274 259.061 636.179 258.606Z" fill="#0466B3"/>
<path d="M646.179 282.606C646.629 282.722 646.904 283.005 647.158 283.305C647.164 283.313 646.938 283.518 646.82 283.631C646.547 283.346 646.275 283.06 646.179 282.606Z" fill="#0466B3"/>
<path d="M593.179 70.6059C593.628 70.7218 593.903 71.0046 594.157 71.3053C594.164 71.313 593.937 71.5177 593.819 71.6306C593.547 71.3454 593.275 71.0603 593.179 70.6059Z" fill="#0466B3"/>
<path d="M658.6 316.365C658.899 316.536 659.214 317.004 659.551 317.769C659.253 317.598 658.934 317.13 658.6 316.365Z" fill="#0466B3"/>
<path d="M510.313 7.42743C510.562 7.4422 510.697 7.57544 510.833 7.70869C510.622 7.65442 510.411 7.60016 510.313 7.42743Z" fill="#0466B3"/>
<path d="M624.119 104.539C624.152 104.594 624.086 104.483 624.119 104.539Z" fill="#0968B9"/>
<path d="M750.377 396.932C741.159 391.613 731.498 390.606 721.045 395.16C720.635 394.723 720.608 394.25 720.578 393.423C726.562 392.129 732.622 390.176 738.512 390.599C742.556 390.889 746.364 394.478 750.377 396.932Z" fill="#0866B4"/>
<path d="M757.735 435.888C762.502 427.03 763.461 417.78 759.19 407.807C760.584 410.579 763.005 413.633 763.331 416.895C764.006 423.66 763.447 430.501 757.735 435.888Z" fill="#0866B4"/>
<path d="M743.397 347.45C744.206 351.339 744.912 354.835 745.617 358.332C745.139 358.478 744.661 358.625 744.184 358.771C742.685 355.807 740.794 352.967 739.811 349.841C739.021 347.329 739.691 344.934 743.397 347.45Z" fill="#0466B3"/>
<path d="M758.195 405.08C755.615 402.893 753.171 400.343 750.561 397.504C755.332 397.293 757.195 400.621 758.195 405.08Z" fill="#0866B4"/>
<path d="M670.825 190.186C672.327 190.069 673.726 190.304 675.125 190.538C674.826 191.23 674.528 191.921 674.229 192.613C673.06 191.921 671.89 191.229 670.825 190.186Z" fill="#0466B3"/>
<path d="M697.544 242.135C696.933 242.939 696.365 243.383 695.796 243.827C695.455 243.188 694.675 242.364 694.853 241.945C695.426 240.594 696.352 239.393 698.154 238.618C697.965 239.67 697.776 240.722 697.544 242.135Z" fill="#0466B3"/>
<path d="M647.683 147.493C649.062 147.926 650.378 148.707 651.693 149.488C651.135 150.093 650.577 150.698 650.018 151.303C649.219 150.149 648.42 148.995 647.683 147.493Z" fill="#0466B3"/>
<path d="M706.075 262.752C707.509 264.283 708.705 266.067 709.902 267.85C709.393 268.141 708.884 268.431 708.375 268.722C707.529 266.816 706.683 264.91 706.075 262.752Z" fill="#0466B3"/>
<path d="M751.021 443.079C752.328 441.376 753.997 439.661 755.962 437.807C754.632 439.467 753.007 441.267 751.021 443.079Z" fill="#0866B4"/>
<path d="M729.078 308.404C728.534 308.059 728.208 307.5 727.882 306.941C728.161 306.813 728.44 306.686 728.719 306.559C728.911 307.102 729.103 307.646 729.078 308.404Z" fill="#0466B3"/>
<path d="M693.568 420.733C693.239 420.295 692.908 419.519 692.578 418.405C692.909 418.843 693.238 419.619 693.568 420.733Z" fill="#0466B3"/>
<path d="M756.456 437.735C756.395 437.255 756.669 436.735 757.201 436.067C757.237 436.511 757.014 437.104 756.456 437.735Z" fill="#0866B4"/>
<path d="M759.221 407.011C758.796 406.897 758.495 406.449 758.129 405.731C758.491 405.866 758.918 406.272 759.221 407.011Z" fill="#0866B4"/>
<path d="M679.566 370.068C679.567 369.625 679.567 369.182 679.462 368.146C679.093 367.06 678.832 366.565 678.57 366.071C680.212 367.502 681.854 368.933 683.534 371.135C683.571 373.295 683.571 374.684 683.57 376.072C682.663 375.597 681.756 375.122 680.706 374.007C680.23 372.268 679.898 371.168 679.566 370.068Z" fill="#0466B3"/>
<path d="M676.398 351.862C675.448 353.338 674.529 354.466 673.22 356.073C672.86 350.694 673.413 350.081 676.398 351.862Z" fill="#0968B9"/>
<path d="M683.715 376.297C683.57 374.683 683.571 373.295 683.573 371.49C684.017 371.073 684.459 371.072 685.233 371.072C685.566 372.461 685.568 373.85 685.57 375.656C685 376.223 684.43 376.373 683.715 376.297Z" fill="#0968B9"/>
<path d="M679.301 370.29C679.898 371.168 680.23 372.268 680.564 373.718C680.055 372.883 679.546 371.697 679.301 370.29Z" fill="#0968B9"/>
<path d="M678.371 365.837C678.832 366.565 679.093 367.06 679.46 367.814C678.619 367.647 677.673 367.22 676.727 366.793C677.209 366.396 677.69 366 678.371 365.837Z" fill="#0968B9"/>
<path d="M670.573 348.378C670.572 348.075 671.071 348.073 671.32 348.073C671.519 348.789 671.468 349.505 671.417 350.221C671.239 350.229 671.06 350.238 670.882 350.246C670.779 349.725 670.677 349.203 670.573 348.378Z" fill="#0968B9"/>
<path d="M611.902 97.9258C611.571 97.0036 611.57 95.938 611.571 94.4729C612.872 94.2613 614.171 94.4493 615.47 94.6372C615.544 95.0784 615.618 95.5197 615.692 95.9609C614.539 96.5681 613.386 97.1753 611.902 97.9258Z" fill="#0866B4"/>
<path d="M355.057 161.665C354.315 159.912 353.913 158.345 353.51 156.777C353.953 156.533 354.396 156.288 354.839 156.043C356.459 157.571 358.078 159.1 359.698 160.629C359.493 161.036 359.288 161.443 359.084 161.85C357.855 161.85 356.626 161.85 355.057 161.665Z" fill="#0866B4"/>
<path d="M359.17 154.242C360.97 153.689 362.568 153.434 364.165 153.179C364.376 153.607 364.587 154.035 364.798 154.463C363.827 155.553 362.856 156.642 361.885 157.732C360.912 156.668 359.94 155.604 359.17 154.242Z" fill="#0866B4"/>
<path d="M336.996 176.604C337.298 175.002 337.738 173.71 338.178 172.418C338.582 172.443 338.986 172.467 339.39 172.491C339.48 174.078 339.57 175.665 339.661 177.253C338.818 177.139 337.976 177.026 336.996 176.604Z" fill="#0866B4"/>
<path d="M348.382 136.35C347.878 137.394 347.278 138.082 346.679 138.77C346.371 137.974 346.063 137.178 345.754 136.382C346.599 136.253 347.443 136.124 348.382 136.35Z" fill="#0866B4"/>
<path d="M345.508 171.084C344.855 171.711 344.201 172.01 343.546 172.31C343.541 171.495 343.535 170.681 343.53 169.866C344.189 170.163 344.847 170.46 345.508 171.084Z" fill="#0866B4"/>
<path d="M715.58 397.066C714.059 393.808 715.658 393.726 718.107 394.985C717.921 395.997 717.772 396.572 717.623 397.147C717.623 397.147 717.575 397.076 717.265 397.083C716.497 397.082 716.038 397.074 715.58 397.066Z" fill="#0968B9"/>
<path d="M715.553 398.338C714.958 399.152 714.009 399.881 712.8 400.794C713.426 400.069 714.313 399.161 715.553 398.338Z" fill="#0866B4"/>
<path d="M669.224 320.126C669.132 321.036 668.696 322 667.916 323.017C668.008 322.106 668.444 321.143 669.224 320.126Z" fill="#0866B4"/>
<path d="M717.927 397.078C717.772 396.572 717.921 395.997 718.317 395.245C719.036 395.08 719.507 395.092 720.33 395.138C719.865 395.784 719.048 396.397 717.927 397.078Z" fill="#0866B4"/>
<path d="M354.105 165.461C354.221 165.013 354.504 164.738 354.804 164.484C354.812 164.477 355.016 164.704 355.129 164.822C354.844 165.094 354.559 165.366 354.105 165.461Z" fill="#0866B4"/>
<path d="M715.643 397.412C716.038 397.074 716.497 397.082 717.3 397.109C717.258 397.514 716.872 397.902 716.213 398.356C715.862 398.202 715.784 397.98 715.643 397.412Z" fill="#0866B4"/>
<path d="M711.496 402.246C711.583 402.471 711.408 402.796 710.965 403.211C710.876 402.982 711.055 402.665 711.496 402.246Z" fill="#0866B4"/>
<path d="M693.57 421.071C695.161 427.841 696.753 434.61 698.146 441.672C697.947 441.964 697.583 441.632 697.499 441.19C697.302 440.481 697.108 440.3 696.835 440.204C696.568 439.879 696.302 439.553 695.927 439.058C693.571 429.91 691.735 420.802 688.99 411.977C682.843 392.215 676.245 372.593 669.829 352.915C669.164 350.872 668.491 348.832 668.168 346.43C668.865 346.07 669.218 346.07 669.677 346.33C670.047 347.084 670.31 347.58 670.573 348.378C670.677 349.203 670.78 349.725 670.882 350.246C671.06 350.238 671.239 350.229 671.417 350.221C671.468 349.505 671.519 348.789 671.941 348.029C678.981 344.347 681.575 345.899 681.556 353.568C681.551 355.546 681.141 357.548 681.351 359.492C681.523 361.083 681.963 363.013 683.022 363.995C683.603 364.533 685.714 363.421 688.038 362.82C687.175 365.701 686.37 368.387 685.233 371.072C684.459 371.072 684.017 371.073 683.536 370.718C681.854 368.933 680.212 367.502 678.371 365.837C677.69 366 677.209 366.396 676.727 366.793C677.673 367.22 678.619 367.647 679.567 368.406C679.567 369.182 679.567 369.625 679.301 370.29C679.546 371.697 680.055 372.883 680.707 374.358C681.756 375.122 682.663 375.597 683.715 376.297C684.431 376.373 685 376.223 685.922 376.038C687.357 376.171 689.286 376.15 689.375 376.542C689.728 378.112 689.759 379.863 689.433 381.448C689.104 383.05 688.211 384.536 687.565 386.073C686.249 386.073 684.933 386.073 683.675 386.073C686.683 396.633 689.621 406.95 692.568 418.005C692.908 419.519 693.239 420.295 693.57 421.071ZM676.429 351.513C673.413 350.081 672.86 350.694 673.22 356.073C674.529 354.466 675.448 353.338 676.429 351.513Z" fill="#0866B4"/>
<path d="M604.641 75.4242C603.38 77.8765 603.403 79.4859 605.896 81.0428C608.487 82.6606 611.098 84.6568 610.175 88.7505C604.67 87.6175 602.45 78.9592 595.254 83.1771C597.552 79.4136 599.567 76.1127 601.592 72.423C602.588 73.0651 603.573 74.0962 604.641 75.4242Z" fill="#0968B9"/>
<path d="M611.57 99.0697C611.57 99.0697 611.57 98.5707 611.57 98.3208C611.57 98.0709 611.571 98.0691 611.902 97.9258C613.386 97.1753 614.539 96.5681 615.692 95.9609C615.618 95.5197 615.544 95.0784 615.47 94.6372C614.171 94.4493 612.871 94.2613 611.571 94.0721L611.567 94.0684C609.512 90.1648 612.591 90.3168 615.162 89.6688C617.014 91.4834 618.599 93.4847 620.294 95.7937C618.582 98.0528 616.844 100.097 614.879 101.893C614.362 102.366 613.141 102.069 611.907 101.723C611.57 100.57 611.57 99.8198 611.57 99.0697Z" fill="#0968B9"/>
<path d="M629.505 108.924C628.658 109.589 627.788 109.997 626.917 110.405C627.01 109.247 627.102 108.088 627.516 106.791C627.837 106.652 627.818 106.696 627.843 107.008C628.158 107.55 628.449 107.78 628.739 108.01C628.986 108.229 629.234 108.448 629.505 108.924Z" fill="#0968B9"/>
<path d="M643.158 129.815C642.673 129.395 642.108 128.716 641.515 127.738C642.017 128.144 642.547 128.85 643.158 129.815Z" fill="#0968B9"/>
<path d="M596.499 65.8126C596.155 65.7912 595.748 65.5373 595.521 65.1507C596.05 65.0689 596.296 65.2563 596.499 65.8126Z" fill="#0968B9"/>
<path d="M7.27404 390.167C6.971 389.981 7.03023 389.668 7.45265 389.237C7.5902 389.394 7.53035 389.702 7.27404 390.167Z" fill="#EC2B4A"/>
<path d="M594.789 63.8175C594.705 63.7944 594.725 63.7618 594.714 63.7723C594.702 63.7828 594.874 63.8407 594.789 63.8175Z" fill="#0968B9"/>
<path d="M598.378 67.8084C598.143 67.9443 597.927 67.7874 597.664 67.3844C597.911 67.1625 598.17 67.2883 598.378 67.8084Z" fill="#0968B9"/>
<path d="M696.841 440.419C697.108 440.3 697.302 440.481 697.466 440.946C697.218 441.072 696.995 440.901 696.841 440.419Z" fill="#0968B9"/>
<path d="M628.685 107.733C628.449 107.78 628.158 107.55 627.838 107.032C628.083 106.981 628.357 107.218 628.685 107.733Z" fill="#0866B4"/>
<path d="M622.005 98.72C622.45 98.7542 622.665 98.9763 622.874 99.4898C622.936 99.7159 622.72 99.9187 622.408 99.8955C621.844 99.6692 621.658 99.4172 621.539 99.1165C621.539 99.1165 621.841 98.8427 622.005 98.72Z" fill="#0866B4"/>
<path d="M669.57 346.071C669.218 346.07 668.865 346.07 668.25 346.071C667.813 345.638 667.639 345.204 667.526 344.419C667.915 343.296 668.244 342.524 668.837 341.233C670.714 338.749 671.711 339.185 671.418 341.568C671.227 343.121 670.214 344.573 669.57 346.071Z" fill="#0968B9"/>
<path d="M669.677 346.33C670.215 344.573 671.227 343.121 671.418 341.568C671.711 339.185 670.714 338.749 668.84 340.897C668.252 340.974 667.988 340.783 667.737 339.93C673.064 331.358 673.368 315.466 668.089 314.623C668.586 316.456 669.077 318.264 669.224 320.126C668.444 321.142 668.008 322.106 667.571 323.07L667.57 323.073C666.821 323.073 666.071 323.072 664.946 322.668C664.237 320.2 663.904 318.135 663.57 316.07C664.113 315.597 665.163 315.072 665.12 314.66C664.7 310.567 664.332 306.439 663.414 302.445C663.114 301.14 661.427 299.78 660.054 299.186C658.154 298.363 655.951 298.24 653.982 297.838C655.216 294.082 657.37 290.673 657.129 287.444C656.844 283.631 653.822 280.891 648.863 281.969C649.492 278.378 650.422 275.319 650.407 272.264C650.399 270.552 648.826 268.847 647.959 267.139C646.728 268.268 645.445 269.347 644.285 270.544C643.542 271.311 642.982 272.254 642.088 273.457C639.208 269.447 636.622 266.297 640.571 261.641C642.514 259.351 641.651 256.842 639.16 253.954C635.693 249.933 634.044 244.367 631.456 239.549C630.755 238.243 629.515 236.314 628.453 236.268C623.481 236.054 623.318 233.918 625.439 230.321C625.63 229.997 625.327 229.382 625.19 228.483C623.478 228.889 621.864 229.271 620.284 229.646C621.426 227.293 622.498 225.085 623.57 222.474C625.751 219.943 625.177 215.219 622.419 213.665C621.015 212.873 619.348 212.557 617.902 211.825C616.597 211.164 615.432 210.228 614.133 209.366C614.117 204.477 614.117 204.477 609.901 203.282C610.026 205.111 610.139 206.776 610.259 208.535C609.583 208.672 608.74 208.9 608.719 208.838C606.796 203.385 600.527 200.042 601.167 193.354C601.226 192.732 600.953 191.838 601.277 191.519C606.296 186.565 602.914 186.062 598.45 186.062C595.164 186.062 593.821 184.335 593.514 181.112C593.083 176.582 592.53 172.018 591.404 167.629C591.034 166.189 588.502 164.081 587.331 164.297C583.655 164.976 580.646 165.233 578.257 161.64C577.701 160.805 575.952 160.763 573.754 160.017C579.753 155.099 578.022 149.045 576.901 143.53C576.437 141.25 573.128 139.55 571.114 137.586C570.558 138.06 570.002 138.534 569.446 139.007C571.122 141.301 573.043 143.459 574.405 145.925C575.831 148.508 577.062 151.475 572.441 153.172C570.931 148.461 569.245 144.242 563.137 144.684C562.487 144.731 560.925 140.97 560.901 138.963C560.858 135.264 561.644 131.556 562.085 127.852C561.405 127.773 560.725 127.693 560.044 127.614C559.884 129.521 560.034 131.527 559.474 133.309C558.947 134.982 557.669 136.418 556.721 137.958C555.872 136.765 555.118 135.489 554.156 134.395C552.131 132.095 549.997 129.89 547.299 126.993C547.719 126.371 548.857 124.687 549.994 123.003C549.573 123.458 549.151 123.912 548.73 124.366C547.211 122.043 546.033 119.354 544.061 117.516C542.578 116.135 540.035 115.101 538.036 115.211C532.036 115.543 529.651 115.197 528.64 105.906C522.824 106.175 516.969 106.445 510.556 106.741C511.265 105.393 511.807 104.6 512.121 103.726C513.921 98.7168 511.192 95.3872 505.969 96.1686C498.388 97.3029 498.388 97.3029 496.682 89.5023C494.339 90.3825 492.166 91.6897 489.882 91.9274C487.289 92.1973 484.602 91.4015 481.946 91.2729C479.811 91.1695 477.66 91.4556 475.518 91.4191C469.949 91.3242 464.313 91.6378 458.833 90.8646C453.324 90.0871 448.024 89.1698 442.828 91.8726C442.112 92.2449 441.014 92.4795 440.767 93.0629C438.087 99.4119 433.421 100.081 427.097 99.2685C419.851 98.3373 419.767 98.9897 417.787 109.447C415.92 108.711 413.973 108.332 412.511 107.279C410.003 105.473 401.49 107.962 400.83 111.014C400.684 111.689 401.016 112.762 401.52 113.194C401.96 113.571 403.089 113.565 403.668 113.261C404.519 112.814 405.14 111.939 405.878 111.267C409.686 107.8 410.824 108.185 411.848 112.341C408.803 115.55 406.067 118.238 403.56 121.125C400.032 125.189 396.635 121.507 393.214 121.059C392.389 120.95 391.688 119.886 390.691 119.064C389.075 120.292 387.534 121.463 385.966 122.654C387.281 124.1 388.503 125.445 389.726 126.789C382.435 125.315 382.582 130.12 382.338 134.029C379.187 135.422 376.33 136.685 373.472 137.948C373.639 138.473 373.805 138.998 373.971 139.523C375.329 139.872 376.686 140.22 378.043 140.568C378.074 140.833 378.105 141.099 378.136 141.364C375.014 141.928 371.892 142.493 368.77 143.058C368.869 143.594 368.967 144.13 369.066 144.666C371.043 144.541 373.021 144.416 374.998 144.291C375.241 144.638 375.484 144.985 375.727 145.332C374.362 146.791 372.825 148.126 371.66 149.73C365.881 157.683 360.884 165.902 351.389 170.859C347.021 173.139 345.137 180.179 342.461 185.285C340.715 186.716 338.836 179.823 336.578 185.703C336.57 186.071 336.57 186.072 336.57 186.072C332.661 186.089 328.726 186.401 324.85 186.051C319.404 185.558 316.884 182.001 317.081 174.524C318.605 177.219 319.57 178.927 320.642 180.823C327.819 176.752 319.302 171.126 322.317 166.453C324.981 166.038 327.875 164.881 329.364 169.053C329.63 169.8 331.444 169.995 332.543 170.444C333.064 169.031 334.185 167.524 333.982 166.224C333.53 163.323 332.185 160.563 331.699 157.664C331.527 156.635 332.792 155.366 333.401 154.207C334.122 155.255 335.23 156.222 335.473 157.372C335.829 159.051 335.565 160.862 335.565 163.385C340.694 161.337 339.728 157.613 339.401 154.766C339.165 152.712 337.376 150.836 336.279 148.881C335.872 149.065 335.464 149.249 335.057 149.433C335.916 146.277 336.749 143.115 337.656 139.973C337.824 139.388 338.267 138.431 338.613 138.417C343.744 138.213 342.962 133.532 344.658 130.705C345.747 128.89 347.27 127.335 349.256 124.836C350.275 127.748 350.824 129.315 351.373 130.883C351.908 130.896 352.443 130.909 352.979 130.922C353.064 129.131 353.704 127.124 353.11 125.598C352.096 122.992 351.584 121.003 353.105 118.193C354.146 116.268 353.777 113.238 353.242 110.882C352.419 107.254 354.305 106.142 357.108 106.153C361.368 106.17 364.328 106.233 365.103 100.286C365.602 96.4557 369.817 93.1118 372.36 89.5451C372.932 88.7422 373.51 87.9401 374.025 87.1003C377.38 81.6278 380.718 76.145 384.209 70.4235C382.122 67.9947 380.07 65.2802 384.676 62.7976C385.095 62.5715 384.505 60.8667 384.914 60.1526C386.054 58.1623 386.593 55.634 390.352 57.0001C392.481 57.7738 395.424 56.3836 397.983 55.879C401.868 55.113 401.685 52.7488 400.803 49.5823C400.214 47.4688 400.691 45.0583 400.691 42.0704C403.813 42.0704 406.586 42.0816 409.359 42.068C415.118 42.0398 417.893 39.1147 417.552 33.4491C417.126 26.3494 418.695 25.0144 426.252 25.4324C428.612 25.5629 431.012 24.9441 433.397 24.6889C434.517 24.5689 435.769 24.1293 436.747 24.4626C444.746 27.1888 446.416 25.8197 452 19.5674C454.665 16.5842 458.192 13.6095 462.705 11.5058C473.559 6.44605 483.986 10.3958 494.417 10.4778C502.172 10.5387 509.418 14.7022 513.214 22.7588C513.786 23.9715 516.122 24.6787 517.762 24.9977C521.934 25.8088 526.175 26.267 530.387 26.8684C530.552 26.8919 530.727 26.9931 530.875 26.9596C534.437 26.152 537.995 25.331 541.7 24.4789C543.633 27.7743 546.876 30.6486 543.825 35.0584C543.4 35.6726 543.9 37.7996 544.541 38.1327C548.063 39.9648 551.777 42.7969 555.399 42.7589C561.181 42.6983 564.349 46.0281 568.882 49.4143C567.221 49.7153 566.326 49.8263 565.458 50.0453C563.616 50.5101 560.999 50.4944 560.188 51.6875C559.45 52.7721 560.078 56.0437 561.186 56.8329C562.894 58.0499 565.512 58.2034 567.772 58.3314C568.725 58.3854 569.685 56.8847 570.751 56.6898C573.105 56.2598 575.529 56.2098 578.198 55.9813C575.104 65.5336 575.527 70.9012 585.222 75.5871C586.843 76.3706 588.523 79.2845 588.371 81.059C587.915 86.3721 589.631 89.3201 595.477 89.4414C595.149 91.0962 594.839 92.3333 594.664 93.5891C593.423 102.457 594.163 103.388 602.899 104.078C608.633 104.531 610.841 106.706 610.483 112.678C610.181 117.699 611.379 120.839 616.766 122.246C618.405 122.674 619.845 125.735 620.422 127.85C621.048 130.151 620.564 132.754 620.564 135.078C623.091 136.155 625.13 137.418 627.332 137.853C629.574 138.295 632.184 138.514 634.267 137.786C638.927 136.158 640.696 136.667 642.528 141.689C643.058 150.388 647.422 156.551 653.282 162.2C654.934 161.026 656.234 160.102 657.623 159.114C663.828 163.985 652.692 166.396 656.742 171.228C658.583 169.756 660.408 168.298 662.233 166.839C662.542 167.086 662.851 167.333 663.16 167.58C662.585 169.723 662.471 172.152 661.349 173.953C658.2 179.009 661.042 178.98 665.16 178.222C664.534 181.083 663.969 183.664 663.277 186.832C665.669 186.601 667.216 186.452 669.502 186.232C668.774 190.766 668.094 194.996 667.448 199.023C672.881 202.068 674.935 197.637 678.412 194.001C677.906 199.757 672.991 205.75 681.956 206.388C683.625 209.341 678.666 216.168 688.145 214.333C687.092 216.529 686.643 218.189 685.652 219.41C680.924 225.235 681.521 230.314 687.748 234.132C691.718 236.566 692.338 239.933 691.049 244.003C690.619 245.361 690.029 246.669 689.117 249.019C691.178 248.118 692.237 247.655 693.296 247.193C693.163 247.645 693.029 248.097 692.896 248.55C695.471 249.472 698.047 250.394 701.029 251.462C701.07 251.223 701.093 251.872 700.849 252.396C697.207 260.231 697.563 263.299 704.25 268.577C708.191 271.688 709.403 273.864 704.779 277.274C704.005 277.845 704.669 280.364 704.669 281.983C705.215 282.028 705.761 282.073 706.307 282.117C707.413 280.562 708.659 279.084 709.586 277.429C710.492 275.809 711.072 274.008 711.796 272.287C712.23 272.328 712.664 272.369 713.098 272.41C713.781 276.635 714.464 280.859 715.284 285.928C722.287 286.529 719.859 294.852 723.235 299.362C723.854 300.19 722.204 302.637 721.746 304.375C721.397 305.699 721.276 307.084 721.054 308.442C721.696 308.826 722.338 309.211 722.98 309.596C723.343 308.368 723.706 307.141 724.069 305.913C724.565 306.223 725.06 306.532 725.555 306.842C724.967 308.837 724.38 310.832 723.787 312.823C731.978 318.664 732.95 322.528 727.605 329.195C729.604 329.412 731.423 329.612 733.242 329.806C735.191 330.015 737.141 330.219 739.656 330.485C739.155 332.033 739.006 333.374 738.346 334.38C735.222 339.138 740.008 345.753 734.735 350.101C734.64 350.179 736.559 352.818 737.642 354.179C739.425 356.42 740.882 358.325 737.54 360.761C736.06 361.84 735.199 364.127 734.637 366.036C733.372 370.333 732.469 374.737 731.32 379.505C732.988 379.867 735.21 380.349 737.432 380.831C737.385 381.511 737.338 382.19 737.291 382.87C732.235 382.632 727.178 382.394 722.122 382.157C721.931 382.781 721.74 383.405 721.549 384.029C722.831 384.442 724.087 384.983 725.398 385.237C727.708 385.685 730.051 385.958 732.38 386.303C730.233 386.894 728.117 387.73 725.93 388.012C723.163 388.369 720.417 388.375 720.578 393.02C720.608 394.25 720.635 394.723 720.616 395.145C720.569 395.095 720.682 395.171 720.33 395.138C719.507 395.092 719.036 395.08 718.355 394.807C715.659 393.726 714.059 393.808 715.643 397.412C715.784 397.98 715.862 398.202 715.929 398.282C715.919 398.14 715.906 398.423 715.553 398.338C714.313 399.161 713.426 400.069 712.532 401.238C712.269 401.714 712.013 401.93 711.496 402.246C711.055 402.665 710.876 402.982 710.706 403.269C710.716 403.238 710.745 403.297 710.745 403.297C707.894 402.563 706.787 401.276 708.653 398.356C710.159 395.999 709.905 394.442 706.362 394.565C702.515 394.699 698.649 394.158 694.789 394.093C686.9 393.96 687.622 394.983 687.566 386.523C688.211 384.536 689.104 383.05 689.433 381.448C689.759 379.863 689.728 378.112 689.375 376.542C689.287 376.15 687.357 376.171 685.922 375.621C685.568 373.85 685.567 372.461 685.565 371.072C686.37 368.387 687.175 365.701 688.038 362.82C685.714 363.421 683.604 364.533 683.023 363.995C681.963 363.013 681.523 361.083 681.351 359.492C681.141 357.548 681.551 355.546 681.556 353.568C681.575 345.899 678.982 344.347 671.692 348.029C671.071 348.073 670.572 348.075 670.572 348.075C670.31 347.58 670.047 347.084 669.677 346.33ZM355.398 161.85C356.627 161.85 357.855 161.85 359.084 161.85C359.289 161.443 359.493 161.036 359.698 160.629C358.078 159.1 356.459 157.571 354.84 156.043C354.397 156.288 353.954 156.533 353.511 156.777C353.913 158.345 354.315 159.912 355.398 161.85ZM358.968 154.541C359.94 155.604 360.913 156.668 361.885 157.732C362.856 156.642 363.827 155.553 364.798 154.463C364.587 154.035 364.376 153.607 364.166 153.179C362.568 153.434 360.971 153.689 358.968 154.541ZM337.134 176.913C337.977 177.026 338.819 177.139 339.661 177.253C339.571 175.665 339.481 174.078 339.391 172.491C338.987 172.467 338.582 172.443 338.178 172.418C337.738 173.71 337.299 175.002 337.134 176.913ZM348.287 135.995C347.443 136.124 346.599 136.253 345.755 136.382C346.063 137.178 346.371 137.974 346.679 138.77C347.279 138.082 347.878 137.394 348.287 135.995ZM345.506 170.757C344.847 170.46 344.189 170.163 343.53 169.866C343.536 170.681 343.541 171.495 343.546 172.31C344.201 172.01 344.855 171.711 345.506 170.757ZM354.274 165.638C354.559 165.366 354.844 165.094 355.129 164.822C355.017 164.704 354.812 164.477 354.804 164.484C354.504 164.738 354.221 165.013 354.274 165.638Z" fill="#0466B3"/>
<path d="M642.572 142.072C642.572 142.072 643.069 142.073 643.35 142.407C644.32 143.7 645.007 144.659 645.694 145.617C646.076 145.317 646.458 145.017 646.84 144.716C646.084 143.833 645.328 142.95 644.572 142.067C644.813 139.596 645.053 137.125 645.461 134.331C654.914 150.136 664.533 166.083 673.422 182.427C700.42 232.072 722.068 284.177 743.351 336.425C752.948 359.984 761.909 383.802 771.351 407.425C781.189 432.037 766.284 455.633 746.706 461.775C730.924 466.726 717.129 463.122 705.546 451.375C702.871 448.662 700.648 445.502 698.281 441.964C696.753 434.61 695.161 427.841 693.568 420.733C693.238 419.619 692.909 418.843 692.57 417.666C689.621 406.95 686.683 396.633 683.675 386.073C684.933 386.073 686.249 386.073 687.566 386.523C687.622 394.983 686.9 393.96 694.789 394.093C698.649 394.158 702.514 394.699 706.361 394.565C709.905 394.442 710.159 395.999 708.653 398.356C706.787 401.276 707.894 402.563 710.729 403.66C701.672 417.74 705.61 435.863 719.675 444.233C730.147 450.465 740.542 449.223 751.021 443.079C753.007 441.267 754.632 439.467 756.274 437.758C756.29 437.849 756.12 437.775 756.456 437.735C757.014 437.104 757.237 436.511 757.475 435.961C757.491 436.003 757.401 436.003 757.735 435.888C763.447 430.501 764.006 423.66 763.331 416.895C763.005 413.633 760.584 410.579 759.157 407.401C759.202 407.372 759.097 407.344 759.221 407.011C758.918 406.272 758.491 405.866 758.323 405.35C758.407 405.307 758.233 405.375 758.195 405.08C757.195 400.621 755.332 397.293 750.44 397.195C750.484 397.177 750.476 397.272 750.377 396.932C746.364 394.477 742.556 390.889 738.512 390.599C732.622 390.176 726.562 392.129 720.575 392.665C720.417 388.375 723.163 388.369 725.93 388.012C728.117 387.731 730.233 386.894 732.38 386.303C730.051 385.958 727.708 385.685 725.398 385.237C724.087 384.983 722.83 384.442 721.549 384.029C721.74 383.405 721.931 382.781 722.122 382.157C727.178 382.394 732.235 382.632 737.291 382.87C737.338 382.19 737.385 381.511 737.432 380.831C735.21 380.349 732.988 379.867 731.32 379.505C732.469 374.737 733.372 370.333 734.637 366.036C735.199 364.127 736.06 361.84 737.54 360.761C740.882 358.325 739.425 356.42 737.642 354.179C736.558 352.818 734.64 350.179 734.734 350.101C740.007 345.753 735.222 339.138 738.346 334.38C739.006 333.374 739.155 332.033 739.656 330.485C737.141 330.219 735.191 330.015 733.242 329.806C731.422 329.612 729.604 329.412 727.605 329.195C732.95 322.528 731.978 318.664 723.787 312.823C724.38 310.832 724.967 308.837 725.555 306.842C725.06 306.532 724.564 306.223 724.069 305.913C723.706 307.141 723.343 308.368 722.979 309.596C722.338 309.211 721.696 308.826 721.054 308.442C721.276 307.084 721.396 305.699 721.745 304.375C722.203 302.637 723.854 300.19 723.234 299.362C719.859 294.852 722.286 286.529 715.284 285.928C714.464 280.859 713.781 276.635 713.098 272.41C712.664 272.369 712.23 272.328 711.795 272.287C711.072 274.008 710.491 275.809 709.585 277.429C708.659 279.085 707.413 280.562 706.307 282.117C705.761 282.073 705.215 282.028 704.669 281.983C704.669 280.364 704.005 277.845 704.778 277.274C709.403 273.864 708.191 271.688 704.249 268.577C697.563 263.299 697.206 260.231 700.849 252.396C701.093 251.872 701.07 251.223 701.029 251.462C698.047 250.394 695.471 249.472 692.896 248.55C693.029 248.097 693.162 247.645 693.296 247.193C692.237 247.655 691.178 248.118 689.116 249.019C690.029 246.669 690.619 245.361 691.049 244.003C692.337 239.933 691.718 236.566 687.748 234.132C681.521 230.314 680.924 225.235 685.652 219.41C686.643 218.189 687.092 216.529 688.145 214.333C678.666 216.168 683.625 209.341 681.956 206.388C672.99 205.75 677.906 199.757 678.412 194.001C674.935 197.637 672.88 202.068 667.447 199.023C668.094 194.996 668.774 190.766 669.502 186.232C667.216 186.452 665.669 186.601 663.276 186.832C663.969 183.664 664.534 181.083 665.16 178.222C661.042 178.98 658.199 179.009 661.348 173.953C662.471 172.152 662.585 169.723 663.16 167.58C662.851 167.333 662.542 167.086 662.232 166.839C660.408 168.298 658.583 169.756 656.742 171.228C652.692 166.396 663.828 163.985 657.623 159.114C656.234 160.102 654.933 161.026 653.282 162.2C647.422 156.551 643.058 150.388 642.572 142.072ZM743.292 347.058C739.691 344.934 739.021 347.329 739.811 349.841C740.794 352.967 742.685 355.807 744.184 358.771C744.661 358.625 745.139 358.479 745.617 358.332C744.912 354.835 744.206 351.339 743.292 347.058ZM670.721 190.537C671.89 191.229 673.06 191.921 674.229 192.613C674.528 191.921 674.826 191.23 675.125 190.538C673.726 190.304 672.327 190.069 670.721 190.537ZM697.588 241.775C697.776 240.722 697.965 239.67 698.154 238.618C696.352 239.393 695.426 240.594 694.853 241.945C694.675 242.364 695.455 243.188 695.796 243.827C696.365 243.383 696.933 242.939 697.588 241.775ZM647.621 147.84C648.42 148.995 649.219 150.149 650.018 151.303C650.577 150.698 651.135 150.093 651.694 149.488C650.378 148.707 649.062 147.926 647.621 147.84ZM705.837 263.005C706.683 264.91 707.529 266.816 708.375 268.722C708.884 268.431 709.393 268.141 709.902 267.85C708.705 266.067 707.509 264.283 705.837 263.005ZM729.296 308.189C729.103 307.646 728.911 307.102 728.719 306.559C728.44 306.686 728.161 306.813 727.882 306.941C728.208 307.5 728.534 308.059 729.296 308.189Z" fill="#0968B9"/>
<path d="M241.791 410.295C244.397 395.27 246.709 380.563 249.724 366.001C251.734 356.292 254.745 346.789 257.522 336.479C263.545 317.732 269.147 299.63 275.215 281.686C282.879 259.023 290.923 236.487 299.003 213.631C303.862 202.214 308.563 191.079 313.167 179.905C316.181 172.589 319.055 165.215 321.993 157.868C323.507 155.578 325.299 153.425 326.495 150.979C342.237 118.78 359.455 87.4482 382.281 59.6255C400.034 37.9864 419.85 18.634 446.082 7.21305C455.635 3.05392 465.587 1.31794 476.026 0.405188C513.903 -2.90653 543.158 14.4697 569.76 38.3606C578.406 46.1253 586.21 54.8274 594.562 63.4312C594.725 63.7618 594.705 63.7944 594.705 63.7944C594.918 63.9601 595.131 64.1257 595.343 64.7874C595.748 65.5373 596.154 65.7911 596.561 66.045C596.853 66.2523 597.145 66.4595 597.598 67.1151C597.927 67.7874 598.143 67.9443 598.409 68.034C599.415 69.1595 600.421 70.2849 601.504 72.1111C599.566 76.1128 597.551 79.4136 595.254 83.1771C602.45 78.9592 604.67 87.6175 610.175 88.7506C611.098 84.6569 608.487 82.6607 605.896 81.0428C603.403 79.4859 603.38 77.8765 604.725 75.7212C608.204 80.0913 611.683 84.4613 615.028 89.3435C612.591 90.3169 609.512 90.1648 611.255 94.1107C611.152 95.4592 611.36 96.7654 611.569 98.3212C611.57 98.5707 611.57 99.0697 611.2 99.0781C610.16 99.7014 609.49 100.316 608.819 100.931C609.737 101.311 610.654 101.691 611.907 102.098C613.141 102.069 614.362 102.366 614.879 101.893C616.844 100.097 618.582 98.0528 620.404 96.1014C620.917 96.7415 621.429 97.3816 621.892 98.4322C621.841 98.8427 621.539 99.1165 621.2 99.1633C620.45 100.239 620.038 101.267 619.626 102.296C620.101 102.508 620.576 102.719 621.051 102.93C621.534 101.993 622.017 101.055 622.61 100.018C622.72 99.9186 622.936 99.7159 622.936 99.7159C624.498 101.82 626.06 103.925 627.409 106.479C627.102 108.088 627.01 109.247 626.917 110.405C627.788 109.997 628.658 109.589 629.528 109.182C633.452 115.038 637.375 120.895 641.421 127.395C642.108 128.716 642.673 129.395 643.238 130.074C643.998 131.166 644.757 132.258 645.405 134.002C645.053 137.125 644.813 139.596 644.32 142.069C643.901 142.071 643.733 142.072 643.317 142.073C643.068 142.073 642.572 142.072 642.527 141.689C640.695 136.667 638.927 136.158 634.267 137.786C632.183 138.514 629.574 138.295 627.332 137.853C625.13 137.418 623.091 136.155 620.563 135.078C620.563 132.754 621.048 130.151 620.421 127.85C619.845 125.735 618.404 122.675 616.766 122.246C611.379 120.839 610.181 117.699 610.482 112.678C610.841 106.706 608.632 104.531 602.899 104.078C594.163 103.388 593.423 102.457 594.663 93.5891C594.839 92.3334 595.148 91.0963 595.477 89.4414C589.631 89.3201 587.915 86.3721 588.371 81.059C588.523 79.2845 586.842 76.3707 585.221 75.5871C575.527 70.9013 575.104 65.5336 578.198 55.9814C575.529 56.2098 573.105 56.2598 570.751 56.6899C569.685 56.8847 568.725 58.3854 567.771 58.3314C565.512 58.2035 562.894 58.0499 561.185 56.8329C560.078 56.0438 559.45 52.7721 560.187 51.6875C560.999 50.4944 563.616 50.5101 565.458 50.0453C566.325 49.8263 567.22 49.7153 568.882 49.4143C564.348 46.0282 561.181 42.6983 555.398 42.7589C551.777 42.7969 548.063 39.9648 544.54 38.1327C543.9 37.7997 543.4 35.6727 543.825 35.0585C546.875 30.6486 543.633 27.7743 541.7 24.4789C537.995 25.331 534.436 26.1521 530.875 26.9596C530.727 26.9931 530.552 26.8919 530.387 26.8684C526.174 26.267 521.934 25.8088 517.762 24.9977C516.121 24.6787 513.786 23.9715 513.214 22.7588C509.417 14.7022 502.172 10.5387 494.417 10.4778C483.986 10.3958 473.559 6.44607 462.704 11.5059C458.192 13.6095 454.664 16.5842 452 19.5674C446.416 25.8198 444.746 27.1888 436.746 24.4626C435.768 24.1293 434.517 24.569 433.396 24.6889C431.012 24.9441 428.612 25.563 426.252 25.4324C418.695 25.0144 417.126 26.3494 417.552 33.4491C417.892 39.1147 415.117 42.0399 409.359 42.0681C406.586 42.0816 403.813 42.0704 400.691 42.0704C400.691 45.0583 400.214 47.4688 400.803 49.5823C401.685 52.7489 401.868 55.113 397.983 55.8791C395.424 56.3837 392.481 57.7739 390.352 57.0001C386.593 55.634 386.054 58.1624 384.914 60.1526C384.504 60.8667 385.095 62.5716 384.675 62.7976C380.07 65.2803 382.121 67.9947 384.208 70.4235C380.717 76.145 377.379 81.6279 374.025 87.1004C373.51 87.9401 372.932 88.7422 372.359 89.5451C369.817 93.1119 365.602 96.4557 365.103 100.286C364.328 106.233 361.367 106.17 357.108 106.153C354.305 106.142 352.419 107.254 353.242 110.882C353.776 113.238 354.146 116.268 353.104 118.193C351.584 121.003 352.095 122.992 353.11 125.598C353.704 127.124 353.064 129.131 352.979 130.922C352.443 130.909 351.908 130.896 351.373 130.883C350.824 129.315 350.275 127.748 349.256 124.836C347.27 127.335 345.746 128.89 344.658 130.705C342.962 133.532 343.744 138.213 338.613 138.417C338.266 138.431 337.824 139.388 337.655 139.973C336.749 143.115 335.915 146.277 335.057 149.433C335.464 149.249 335.871 149.065 336.278 148.881C337.375 150.836 339.165 152.712 339.401 154.766C339.728 157.613 340.694 161.337 335.564 163.385C335.564 160.862 335.829 159.051 335.473 157.372C335.229 156.222 334.122 155.255 333.401 154.207C332.792 155.366 331.526 156.635 331.699 157.664C332.185 160.563 333.53 163.323 333.982 166.224C334.185 167.524 333.063 169.031 332.543 170.444C331.444 169.995 329.63 169.8 329.364 169.053C327.875 164.881 324.981 166.038 322.317 166.453C319.302 171.127 327.819 176.752 320.641 180.823C319.57 178.927 318.604 177.219 317.081 174.524C316.884 182.001 319.404 185.558 324.85 186.051C328.725 186.401 332.661 186.089 336.604 186.412C337.615 187.526 338.593 188.299 339.575 189.415C339.905 190.368 340.23 190.979 340.555 191.59C340.836 191.293 341.118 190.996 341.399 190.699C340.789 190.156 340.18 189.613 339.562 188.698C338.56 187.575 337.565 186.822 336.577 185.702C338.836 179.823 340.715 186.716 342.461 185.285C345.137 180.179 347.02 173.139 351.389 170.859C360.884 165.902 365.881 157.683 371.66 149.73C372.825 148.126 374.361 146.791 375.726 145.332C375.484 144.985 375.241 144.638 374.998 144.291C373.02 144.416 371.043 144.541 369.065 144.666C368.967 144.13 368.869 143.594 368.77 143.058C371.892 142.493 375.014 141.928 378.136 141.364C378.105 141.099 378.074 140.833 378.042 140.568C376.685 140.22 375.328 139.872 373.971 139.523C373.805 138.998 373.638 138.473 373.472 137.948C376.329 136.685 379.187 135.422 382.337 134.029C382.581 130.12 382.434 125.316 389.726 126.789C388.503 125.445 387.281 124.1 385.966 122.654C387.533 121.463 389.074 120.292 390.69 119.064C391.688 119.886 392.388 120.95 393.214 121.059C396.635 121.507 400.032 125.189 403.56 121.125C406.067 118.238 408.803 115.55 411.848 112.341C410.824 108.185 409.686 107.8 405.878 111.267C405.14 111.939 404.518 112.814 403.667 113.261C403.088 113.565 401.959 113.571 401.52 113.194C401.016 112.762 400.684 111.689 400.83 111.014C401.49 107.962 410.003 105.473 412.511 107.279C413.972 108.332 415.919 108.711 417.786 109.447C419.767 98.9898 419.851 98.3373 427.097 99.2685C433.421 100.081 438.087 99.4119 440.767 93.063C441.013 92.4795 442.112 92.2449 442.828 91.8726C448.024 89.1698 453.324 90.0871 458.833 90.8646C464.312 91.6379 469.949 91.3242 475.518 91.4191C477.659 91.4556 479.811 91.1695 481.946 91.2729C484.602 91.4015 487.289 92.1973 489.881 91.9275C492.166 91.6897 494.339 90.3826 496.682 89.5024C498.387 97.303 498.387 97.3029 505.969 96.1686C511.192 95.3872 513.921 98.7168 512.121 103.726C511.806 104.6 511.265 105.393 510.556 106.741C516.968 106.445 522.824 106.175 528.64 105.906C529.65 115.197 532.036 115.543 538.036 115.211C540.035 115.101 542.578 116.135 544.06 117.516C546.032 119.354 547.21 122.043 548.729 124.366C549.151 123.912 549.572 123.458 549.994 123.003C548.856 124.687 547.719 126.371 547.299 126.993C549.996 129.89 552.13 132.095 554.156 134.395C555.118 135.489 555.872 136.765 556.721 137.958C557.668 136.418 558.947 134.982 559.473 133.309C560.034 131.527 559.884 129.522 560.044 127.614C560.724 127.693 561.404 127.773 562.085 127.852C561.644 131.556 560.858 135.264 560.901 138.963C560.924 140.97 562.487 144.731 563.137 144.684C569.244 144.242 570.93 148.461 572.441 153.172C577.062 151.475 575.83 148.508 574.405 145.925C573.043 143.459 571.122 141.301 569.446 139.007C570.002 138.534 570.557 138.06 571.113 137.586C573.128 139.55 576.437 141.25 576.901 143.53C578.022 149.045 579.752 155.099 573.753 160.017C575.951 160.763 577.701 160.805 578.257 161.64C580.645 165.233 583.654 164.976 587.331 164.297C588.502 164.081 591.034 166.189 591.403 167.629C592.529 172.018 593.082 176.582 593.513 181.112C593.82 184.335 595.164 186.062 598.45 186.062C602.913 186.062 606.296 186.565 601.276 191.519C600.953 191.838 601.226 192.732 601.167 193.354C600.527 200.042 606.796 203.385 608.718 208.838C608.74 208.9 609.583 208.672 610.259 208.535C610.139 206.776 610.026 205.111 609.901 203.282C614.117 204.477 614.117 204.477 614.133 209.366C615.432 210.228 616.597 211.164 617.902 211.825C619.348 212.557 621.014 212.873 622.419 213.665C625.176 215.219 625.751 219.943 623.533 221.719C622.071 219.5 620.646 217.635 619.22 215.769C618.849 216.037 618.478 216.305 618.107 216.574C618.807 218.573 619.507 220.572 620.256 222.711C621.377 222.494 622.473 222.283 623.57 222.474C622.498 225.085 621.425 227.293 620.283 229.646C621.864 229.271 623.477 228.889 625.189 228.483C625.327 229.382 625.63 229.997 625.439 230.321C623.318 233.918 623.481 236.054 628.452 236.268C629.514 236.314 630.755 238.243 631.456 239.549C634.044 244.367 635.692 249.933 639.16 253.954C641.65 256.842 642.514 259.351 640.571 261.641C636.622 266.297 639.208 269.447 642.088 273.457C642.982 272.254 643.542 271.311 644.284 270.545C645.444 269.347 646.727 268.268 647.958 267.139C648.826 268.847 650.399 270.552 650.407 272.264C650.422 275.319 649.491 278.378 648.863 281.969C653.821 280.891 656.844 283.631 657.129 287.444C657.37 290.673 655.216 294.082 653.981 297.838C655.951 298.24 658.154 298.363 660.054 299.186C661.427 299.78 663.113 301.14 663.413 302.445C664.332 306.439 664.699 310.567 665.12 314.66C665.163 315.072 664.113 315.597 663.558 315.678C661.888 314.548 660.23 313.808 658.536 312.785C658.195 312.179 657.89 311.858 657.585 311.536C657.403 311.746 657.222 311.955 657.04 312.164C657.549 312.467 658.058 312.77 658.568 313.448C658.574 314.57 658.579 315.319 658.599 316.365C658.934 317.13 659.253 317.598 659.901 318.248C660.687 319.925 661.042 321.461 661.642 322.895C661.955 323.641 662.699 324.206 663.248 324.853C663.69 324.259 664.131 323.665 664.947 323.071C666.071 323.072 666.82 323.073 667.576 323.458C667.911 325.584 668.24 327.327 668.251 328.932C666.355 328.287 664.778 327.78 663.201 327.272C663.035 327.573 662.869 327.874 662.703 328.175C664.324 330.14 665.946 332.105 667.422 334.406C667.372 336.516 667.468 338.29 667.675 340.286C667.987 340.783 668.251 340.974 668.574 341.416C668.243 342.524 667.915 343.296 667.587 344.067C664.127 335.497 660.9 326.822 657.163 318.374C644.567 289.9 631.806 261.499 619.04 233.1C618.236 231.311 616.846 229.786 615.587 227.444C614.607 224.947 613.959 223.021 612.898 221.358C604.048 207.482 595.59 193.324 586.113 179.885C570.505 157.753 552.683 137.603 529.849 122.474C500.484 103.018 469.241 96.5723 435.504 109.547C413.627 117.96 395.976 132.542 379.806 149.093C379.04 149.877 378.675 151.054 378.123 152.048C370.796 160.757 362.999 169.122 356.267 178.269C348.737 188.5 342.171 199.441 335.041 210.401C332.871 213.515 330.563 216.14 328.863 219.113C305.264 260.384 287.024 304.062 270.791 348.643C263.401 368.938 255.921 389.201 248.378 409.439C247.609 411.5 246.118 413.292 244.128 416.594C242.979 413.678 242.388 412.177 241.791 410.295ZM486.982 6.07091C489.629 6.07091 492.275 6.07091 494.922 6.07091C494.899 5.57139 494.876 5.07184 494.853 4.57232C483.604 4.57232 472.356 4.57232 461.107 4.57232C461.095 5.07184 461.082 5.57139 461.07 6.07091C469.381 6.07091 477.692 6.07091 486.982 6.07091ZM346.78 116.812C346.523 118.353 346.265 119.893 345.906 122.045C347.719 120.619 349.258 119.832 350.14 118.582C350.844 117.583 350.747 116.021 351.005 114.708C349.699 115.175 348.393 115.641 346.78 116.812ZM585.844 62.3288C586.797 66.1328 589.291 65.8602 592.808 64.7929C590.718 62.3214 590.274 57.983 585.844 62.3288ZM520.8 110.602C520.609 111.581 520.418 112.56 520.227 113.539C521.623 113.517 523.055 113.665 524.394 113.376C524.832 113.282 525.027 112.055 525.333 111.346C524.057 110.982 522.782 110.619 520.8 110.602ZM476.638 96.094C476.103 96.5355 475.568 96.977 475.034 97.4185C475.619 97.8668 476.185 98.6602 476.794 98.6948C478.285 98.7795 479.796 98.5138 481.299 98.389C481.39 97.973 481.482 97.557 481.574 97.1409C480.18 96.7856 478.785 96.4303 476.638 96.094ZM454.015 10.8954C454.623 6.13376 451.881 8.51742 450.22 8.59357C449.995 9.11936 449.771 9.64515 449.546 10.1709C450.867 10.5919 452.188 11.0129 454.015 10.8954ZM428.558 20.6052C427.644 21.0721 426.731 21.539 425.817 22.0058C425.861 22.4103 425.905 22.8147 425.949 23.2191C427.299 23.2997 428.649 23.3803 429.999 23.461C429.743 22.4451 429.488 21.4292 428.558 20.6052ZM602.816 90.6811C602.571 89.5261 602.325 88.3711 602.08 87.2161C601.364 87.4541 600.648 87.6921 599.931 87.9302C600.653 88.9221 601.376 89.914 602.816 90.6811ZM501.948 6.73058C503.491 6.96694 505.033 7.20332 506.576 7.43969C506.535 6.79262 506.495 6.14554 506.455 5.49848C505.047 5.70444 503.639 5.91039 501.948 6.73058ZM611.745 105.521C612.799 105.81 613.852 106.099 614.906 106.387C614.933 105.686 614.96 104.985 614.986 104.284C613.968 104.468 612.95 104.653 611.745 105.521ZM634.413 122.374C634.413 123.646 634.413 124.918 634.413 126.191C635.033 126.063 635.653 125.935 636.273 125.807C635.872 124.615 635.471 123.423 634.413 122.374ZM380.395 69.5738C379.708 69.2039 379.021 68.834 378.334 68.464C378.184 69.0297 378.034 69.5954 377.884 70.1611C378.669 70.1907 379.453 70.2203 380.395 69.5738ZM366.328 88.8517C366.921 88.5321 367.513 88.2124 368.106 87.8927C367.173 87.4412 366.24 86.9896 365.307 86.5381C365.454 87.208 365.601 87.8778 366.328 88.8517ZM630.717 251.66C631.416 251.988 632.115 252.316 632.814 252.644C632.889 252.225 632.964 251.806 633.039 251.387C632.297 251.261 631.555 251.136 630.717 251.66ZM653.428 290.581C653 290.277 652.573 289.974 652.146 289.671C652.033 290.12 651.919 290.568 651.805 291.017C652.305 291.071 652.805 291.124 653.428 290.581ZM443.177 20.8692C442.784 20.865 442.39 20.8609 441.996 20.8566C441.995 21.0199 441.982 21.3252 441.993 21.3261C442.385 21.3563 442.779 21.358 443.177 20.8692ZM636.002 258.775C636.274 259.061 636.547 259.346 636.819 259.632C636.937 259.519 637.164 259.314 637.158 259.306C636.904 259.005 636.628 258.722 636.002 258.775ZM646.003 282.775C646.275 283.06 646.547 283.346 646.819 283.631C646.937 283.518 647.164 283.313 647.158 283.305C646.904 283.005 646.628 282.722 646.003 282.775ZM593.003 70.7752C593.275 71.0603 593.547 71.3454 593.819 71.6306C593.937 71.5177 594.164 71.313 594.157 71.3054C593.903 71.0046 593.628 70.7218 593.003 70.7752ZM510.2 7.5459C510.411 7.60016 510.622 7.65442 510.833 7.70869C510.697 7.57545 510.562 7.44221 510.2 7.5459Z" fill="#0866B4"/>
</svg>
